<?xml version="1.0" encoding="UTF-8"?>
<svg width="1200px" height="900px" viewBox="0 0 1200 900" version="1.1" xmlns="http://www.w3.org/2000/svg" xmlns:xlink="http://www.w3.org/1999/xlink">
    <!-- Generator: Sketch 40.3 (33839) - http://www.bohemiancoding.com/sketch -->
    <title>Feature - 2 col</title>
    <desc>Created with Sketch.</desc>
    <defs></defs>
    <g id="Page-1" stroke="none" stroke-width="1" fill="none" fill-rule="evenodd">
        <g id="Feature---2-col">
            <g id="Group" transform="translate(38.000000, 238.000000)">
                <path d="M6,313.999275 C6,311.790536 7.79600716,310 9.99252391,310 L498.007476,310 C500.212486,310 502,311.786795 502,313.999275 L502,336.000725 C502,338.209464 500.203993,340 498.007476,340 L9.99252391,340 C7.78751384,340 6,338.213205 6,336.000725 L6,313.999275 Z M6,355.999275 C6,353.790536 7.79476141,352 10.007435,352 L490.916959,352 C493.130204,352 494.924394,353.786795 494.924394,355.999275 L494.924394,378.000725 C494.924394,380.209464 493.129632,382 490.916959,382 L10.007435,382 C7.79418978,382 6,380.213205 6,378.000725 L6,355.999275 Z M6,271.999275 C6,269.790536 7.79600716,268 9.99252391,268 L498.007476,268 C500.212486,268 502,269.786795 502,271.999275 L502,294.000725 C502,296.209464 500.203993,298 498.007476,298 L9.99252391,298 C7.78751384,298 6,296.213205 6,294.000725 L6,271.999275 Z M6,230.999275 C6,228.790536 7.79600716,227 9.99252391,227 L498.007476,227 C500.212486,227 502,228.786795 502,230.999275 L502,253.000725 C502,255.209464 500.203993,257 498.007476,257 L9.99252391,257 C7.78751384,257 6,255.213205 6,253.000725 L6,230.999275 Z M6,397.999275 C6,395.790536 7.79965009,394 9.99854688,394 L460.50074,394 C462.709076,394 464.499287,395.786795 464.499287,397.999275 L464.499287,420.000725 C464.499287,422.209464 462.699637,424 460.50074,424 L9.99854688,424 C7.79021042,424 6,422.213205 6,420.000725 L6,397.999275 Z" id="subheading" fill="#DDDEE2"></path>
                <rect id="heading" fill="#BEC0C4" x="6" y="147" width="371" height="50" rx="4"></rect>
                <circle id="Oval" fill="#D8D8D8" cx="58.5" cy="58.5" r="58.5"></circle>
            </g>
            <g id="Group" transform="translate(650.000000, 238.000000)">
                <path d="M6,313.999275 C6,311.790536 7.79600716,310 9.99252391,310 L498.007476,310 C500.212486,310 502,311.786795 502,313.999275 L502,336.000725 C502,338.209464 500.203993,340 498.007476,340 L9.99252391,340 C7.78751384,340 6,338.213205 6,336.000725 L6,313.999275 Z M6,355.999275 C6,353.790536 7.79476141,352 10.007435,352 L490.916959,352 C493.130204,352 494.924394,353.786795 494.924394,355.999275 L494.924394,378.000725 C494.924394,380.209464 493.129632,382 490.916959,382 L10.007435,382 C7.79418978,382 6,380.213205 6,378.000725 L6,355.999275 Z M6,271.999275 C6,269.790536 7.79600716,268 9.99252391,268 L498.007476,268 C500.212486,268 502,269.786795 502,271.999275 L502,294.000725 C502,296.209464 500.203993,298 498.007476,298 L9.99252391,298 C7.78751384,298 6,296.213205 6,294.000725 L6,271.999275 Z M6,230.999275 C6,228.790536 7.79600716,227 9.99252391,227 L498.007476,227 C500.212486,227 502,228.786795 502,230.999275 L502,253.000725 C502,255.209464 500.203993,257 498.007476,257 L9.99252391,257 C7.78751384,257 6,255.213205 6,253.000725 L6,230.999275 Z M6,397.999275 C6,395.790536 7.79965009,394 9.99854688,394 L460.50074,394 C462.709076,394 464.499287,395.786795 464.499287,397.999275 L464.499287,420.000725 C464.499287,422.209464 462.699637,424 460.50074,424 L9.99854688,424 C7.79021042,424 6,422.213205 6,420.000725 L6,397.999275 Z" id="subheading" fill="#DDDEE2"></path>
                <rect id="heading" fill="#BEC0C4" x="6" y="147" width="371" height="50" rx="4"></rect>
                <circle id="Oval" fill="#D8D8D8" cx="58.5" cy="58.5" r="58.5"></circle>
            </g>
        </g>
    </g>
</svg>
