<?xml version="1.0" encoding="UTF-8"?>
<svg width="1200px" height="900px" viewBox="0 0 1200 900" version="1.1" xmlns="http://www.w3.org/2000/svg" xmlns:xlink="http://www.w3.org/1999/xlink">
    <!-- Generator: Sketch 40.3 (33839) - http://www.bohemiancoding.com/sketch -->
    <title>Feature - col steps</title>
    <desc>Created with Sketch.</desc>
    <defs></defs>
    <g id="Page-1" stroke="none" stroke-width="1" fill="none" fill-rule="evenodd">
        <g id="Feature---col-steps">
            <path d="M250,189.999275 C250,187.790536 251.799085,186 254.007281,186 L946.992719,186 C949.205879,186 951,187.786795 951,189.999275 L951,212.000725 C951,214.209464 949.200915,216 946.992719,216 L254.007281,216 C251.794121,216 250,214.213205 250,212.000725 L250,189.999275 Z M255,231.999275 C255,229.790536 256.787959,228 258.993094,228 L942.006906,228 C944.212231,228 946,229.786795 946,231.999275 L946,254.000725 C946,256.209464 944.212041,258 942.006906,258 L258.993094,258 C256.787769,258 255,256.213205 255,254.000725 L255,231.999275 Z" id="subheading" fill="#DDDEE2"></path>
            <rect id="heading" fill="#BEC0C4" x="196" y="82" width="808" height="60" rx="4"></rect>
            <g id="Group" transform="translate(41.000000, 396.000000)">
                <path d="M152,133.999275 C152,131.790536 153.784064,130 156.009783,130 L553.127165,130 C555.341706,130 557.136947,131.786795 557.136947,133.999275 L557.136947,156.000725 C557.136947,158.209464 555.352883,160 553.127165,160 L156.009783,160 C153.795241,160 152,158.213205 152,156.000725 L152,133.999275 Z M152,88.9992748 C152,86.7905363 153.787487,85 156.001652,85 L558.998348,85 C561.208399,85 563,86.7867947 563,88.9992748 L563,111.000725 C563,113.209464 561.212513,115 558.998348,115 L156.001652,115 C153.791601,115 152,113.213205 152,111.000725 L152,88.9992748 Z M152,175.999275 C152,173.790536 153.799888,172 156.009681,172 L527.916139,172 C530.130625,172 531.92582,173.786795 531.92582,175.999275 L531.92582,198.000725 C531.92582,200.209464 530.125933,202 527.916139,202 L156.009681,202 C153.795195,202 152,200.213205 152,198.000725 L152,175.999275 Z" id="subheading" fill="#DDDEE2"></path>
                <rect id="heading" fill="#BEC0C4" x="152" y="5" width="224" height="50" rx="4"></rect>
                <circle id="Oval" fill="#D8D8D8" cx="51.5" cy="51.5" r="51.5"></circle>
            </g>
            <g id="Group" transform="translate(41.000000, 646.000000)">
                <path d="M152,133.999275 C152,131.790536 153.797086,130 156.006141,130 L556.08801,130 C558.300541,130 560.094151,131.786795 560.094151,133.999275 L560.094151,156.000725 C560.094151,158.209464 558.297065,160 556.08801,160 L156.006141,160 C153.79361,160 152,158.213205 152,156.000725 L152,133.999275 Z M152,88.9992748 C152,86.7905363 153.800534,85 155.997736,85 L562.002264,85 C564.210152,85 566,86.7867947 566,88.9992748 L566,111.000725 C566,113.209464 564.199466,115 562.002264,115 L155.997736,115 C153.789848,115 152,113.213205 152,111.000725 L152,88.9992748 Z M152,175.999275 C152,173.790536 153.791416,172 156.007122,172 L530.69188,172 C532.904952,172 534.699001,173.786795 534.699001,175.999275 L534.699001,198.000725 C534.699001,200.209464 532.907586,202 530.69188,202 L156.007122,202 C153.794049,202 152,200.213205 152,198.000725 L152,175.999275 Z" id="subheading" fill="#DDDEE2"></path>
                <rect id="heading" fill="#BEC0C4" x="152" y="5" width="224" height="50" rx="4"></rect>
                <circle id="Oval" fill="#D8D8D8" cx="51.5" cy="51.5" r="51.5"></circle>
            </g>
            <rect id="Rectangle-2" fill-opacity="0.495301178" fill="#E7E7EA" x="859" y="345" width="708" height="639.292627" rx="30"></rect>
            <rect id="Rectangle-2" fill="#E7E7EA" x="779" y="551" width="257.425547" height="453.292627" rx="30"></rect>
        </g>
    </g>
</svg>