<?xml version="1.0" encoding="UTF-8"?>
<svg width="1200px" height="900px" viewBox="0 0 1200 900" version="1.1" xmlns="http://www.w3.org/2000/svg" xmlns:xlink="http://www.w3.org/1999/xlink">
    <!-- Generator: Sketch 40.3 (33839) - http://www.bohemiancoding.com/sketch -->
    <title>Feature - 3 col</title>
    <desc>Created with Sketch.</desc>
    <defs></defs>
    <g id="Page-1" stroke="none" stroke-width="1" fill="none" fill-rule="evenodd">
        <g id="Feature---3-col">
            <g id="Group" transform="translate(38.000000, 238.000000)">
                <path d="M6,313.999275 C6,311.790536 7.78529984,310 9.9981789,310 L312.619569,310 C314.827702,310 316.617748,311.786795 316.617748,313.999275 L316.617748,336.000725 C316.617748,338.209464 314.832448,340 312.619569,340 L9.9981789,340 C7.79004567,340 6,338.213205 6,336.000725 L6,313.999275 Z M6,355.999275 C6,353.790536 7.79811868,352 9.99742034,352 L308.189261,352 C310.396976,352 312.186682,353.786795 312.186682,355.999275 L312.186682,378.000725 C312.186682,380.209464 310.388563,382 308.189261,382 L9.99742034,382 C7.78970605,382 6,380.213205 6,378.000725 L6,355.999275 Z M6,271.999275 C6,269.790536 7.78529984,268 9.9981789,268 L312.619569,268 C314.827702,268 316.617748,269.786795 316.617748,271.999275 L316.617748,294.000725 C316.617748,296.209464 314.832448,298 312.619569,298 L9.9981789,298 C7.79004567,298 6,296.213205 6,294.000725 L6,271.999275 Z M6,230.999275 C6,228.790536 7.78529984,227 9.9981789,227 L312.619569,227 C314.827702,227 316.617748,228.786795 316.617748,230.999275 L316.617748,253.000725 C316.617748,255.209464 314.832448,257 312.619569,257 L9.9981789,257 C7.79004567,257 6,255.213205 6,253.000725 L6,230.999275 Z M6,397.999275 C6,395.790536 7.79617827,394 10.0041915,394 L289.128905,394 C291.340359,394 293.133097,395.786795 293.133097,397.999275 L293.133097,420.000725 C293.133097,422.209464 291.336918,424 289.128905,424 L10.0041915,424 C7.7927376,424 6,422.213205 6,420.000725 L6,397.999275 Z" id="subheading" fill="#DDDEE2"></path>
                <rect id="heading" fill="#BEC0C4" x="6" y="147" width="224" height="50" rx="4"></rect>
                <circle id="Oval" fill="#D8D8D8" cx="58.5" cy="58.5" r="58.5"></circle>
            </g>
            <g id="Group" transform="translate(442.000000, 238.000000)">
                <path d="M6,313.999275 C6,311.790536 7.78529984,310 9.9981789,310 L312.619569,310 C314.827702,310 316.617748,311.786795 316.617748,313.999275 L316.617748,336.000725 C316.617748,338.209464 314.832448,340 312.619569,340 L9.9981789,340 C7.79004567,340 6,338.213205 6,336.000725 L6,313.999275 Z M6,355.999275 C6,353.790536 7.79811868,352 9.99742034,352 L308.189261,352 C310.396976,352 312.186682,353.786795 312.186682,355.999275 L312.186682,378.000725 C312.186682,380.209464 310.388563,382 308.189261,382 L9.99742034,382 C7.78970605,382 6,380.213205 6,378.000725 L6,355.999275 Z M6,271.999275 C6,269.790536 7.78529984,268 9.9981789,268 L312.619569,268 C314.827702,268 316.617748,269.786795 316.617748,271.999275 L316.617748,294.000725 C316.617748,296.209464 314.832448,298 312.619569,298 L9.9981789,298 C7.79004567,298 6,296.213205 6,294.000725 L6,271.999275 Z M6,230.999275 C6,228.790536 7.78529984,227 9.9981789,227 L312.619569,227 C314.827702,227 316.617748,228.786795 316.617748,230.999275 L316.617748,253.000725 C316.617748,255.209464 314.832448,257 312.619569,257 L9.9981789,257 C7.79004567,257 6,255.213205 6,253.000725 L6,230.999275 Z M6,397.999275 C6,395.790536 7.79617827,394 10.0041915,394 L289.128905,394 C291.340359,394 293.133097,395.786795 293.133097,397.999275 L293.133097,420.000725 C293.133097,422.209464 291.336918,424 289.128905,424 L10.0041915,424 C7.7927376,424 6,422.213205 6,420.000725 L6,397.999275 Z" id="subheading" fill="#DDDEE2"></path>
                <rect id="heading" fill="#BEC0C4" x="6" y="147" width="224" height="50" rx="4"></rect>
                <circle id="Oval" fill="#D8D8D8" cx="58.5" cy="58.5" r="58.5"></circle>
            </g>
            <g id="Group" transform="translate(846.000000, 238.000000)">
                <path d="M6,313.999275 C6,311.790536 7.78529984,310 9.9981789,310 L312.619569,310 C314.827702,310 316.617748,311.786795 316.617748,313.999275 L316.617748,336.000725 C316.617748,338.209464 314.832448,340 312.619569,340 L9.9981789,340 C7.79004567,340 6,338.213205 6,336.000725 L6,313.999275 Z M6,355.999275 C6,353.790536 7.79811868,352 9.99742034,352 L308.189261,352 C310.396976,352 312.186682,353.786795 312.186682,355.999275 L312.186682,378.000725 C312.186682,380.209464 310.388563,382 308.189261,382 L9.99742034,382 C7.78970605,382 6,380.213205 6,378.000725 L6,355.999275 Z M6,271.999275 C6,269.790536 7.78529984,268 9.9981789,268 L312.619569,268 C314.827702,268 316.617748,269.786795 316.617748,271.999275 L316.617748,294.000725 C316.617748,296.209464 314.832448,298 312.619569,298 L9.9981789,298 C7.79004567,298 6,296.213205 6,294.000725 L6,271.999275 Z M6,230.999275 C6,228.790536 7.78529984,227 9.9981789,227 L312.619569,227 C314.827702,227 316.617748,228.786795 316.617748,230.999275 L316.617748,253.000725 C316.617748,255.209464 314.832448,257 312.619569,257 L9.9981789,257 C7.79004567,257 6,255.213205 6,253.000725 L6,230.999275 Z M6,397.999275 C6,395.790536 7.79617827,394 10.0041915,394 L289.128905,394 C291.340359,394 293.133097,395.786795 293.133097,397.999275 L293.133097,420.000725 C293.133097,422.209464 291.336918,424 289.128905,424 L10.0041915,424 C7.7927376,424 6,422.213205 6,420.000725 L6,397.999275 Z" id="subheading" fill="#DDDEE2"></path>
                <rect id="heading" fill="#BEC0C4" x="6" y="147" width="224" height="50" rx="4"></rect>
                <circle id="Oval" fill="#D8D8D8" cx="58.5" cy="58.5" r="58.5"></circle>
            </g>
        </g>
    </g>
</svg>