<?xml version="1.0" encoding="UTF-8"?>
<svg width="1200px" height="900px" viewBox="0 0 1200 900" version="1.1" xmlns="http://www.w3.org/2000/svg" xmlns:xlink="http://www.w3.org/1999/xlink">
    <!-- Generator: Sketch 40.3 (33839) - http://www.bohemiancoding.com/sketch -->
    <title>Hero - Meyer</title>
    <desc>Created with Sketch.</desc>
    <defs>
        <rect id="path-1" x="0" y="0" width="371" height="60" rx="4"></rect>
        <mask id="mask-2" maskContentUnits="userSpaceOnUse" maskUnits="objectBoundingBox" x="0" y="0" width="371" height="60" fill="white">
            <use xlink:href="#path-1"></use>
        </mask>
    </defs>
    <g id="Page-1" stroke="none" stroke-width="1" fill="none" fill-rule="evenodd">
        <g id="Hero---Meyer">
            <path d="M455,305.999275 C455,303.790536 456.791386,302 458.990132,302 L1149.00987,302 C1151.21356,302 1153,303.786795 1153,305.999275 L1153,328.000725 C1153,330.209464 1151.20861,332 1149.00987,332 L458.990132,332 C456.786443,332 455,330.213205 455,328.000725 L455,305.999275 Z M455,347.999275 C455,345.790536 456.794841,344 458.997486,344 L1139.04531,344 C1141.25306,344 1143.0428,345.786795 1143.0428,347.999275 L1143.0428,370.000725 C1143.0428,372.209464 1141.24795,374 1139.04531,374 L458.997486,374 C456.789735,374 455,372.213205 455,370.000725 L455,347.999275 Z M455,431.999275 C455,429.790536 456.798165,428 458.999734,428 L999.000266,428 C1001.20926,428 1003,429.786795 1003,431.999275 L1003,454.000725 C1003,456.209464 1001.20184,458 999.000266,458 L458.999734,458 C456.790742,458 455,456.213205 455,454.000725 L455,431.999275 Z M455,389.999275 C455,387.790536 456.794138,386 458.994551,386 L1096.23227,386 C1098.4384,386 1100.22682,387.786795 1100.22682,389.999275 L1100.22682,412.000725 C1100.22682,414.209464 1098.43268,416 1096.23227,416 L458.994551,416 C456.788421,416 455,414.213205 455,412.000725 L455,389.999275 Z" id="subheading" fill="#DDDEE2"></path>
            <path d="M455,132.006556 C455,129.793796 456.791386,128 458.990132,128 L1149.00987,128 C1151.21356,128 1153,129.795681 1153,132.006556 L1153,183.993444 C1153,186.206204 1151.20861,188 1149.00987,188 L458.990132,188 C456.786443,188 455,186.204319 455,183.993444 L455,132.006556 Z M455,206.006556 C455,203.793796 456.79035,202 458.995017,202 L1060.89112,202 C1063.09751,202 1064.88614,203.795681 1064.88614,206.006556 L1064.88614,257.993444 C1064.88614,260.206204 1063.09579,262 1060.89112,262 L458.995017,262 C456.78863,262 455,260.204319 455,257.993444 L455,206.006556 Z" id="heading" fill="#BEC0C4"></path>
            <g id="Group-2" transform="translate(455.000000, 518.000000)">
                <rect id="button" fill="#BEC0C4" x="383" y="0" width="148" height="60" rx="4"></rect>
                <use id="input" stroke-opacity="0.2" stroke="#000000" mask="url(#mask-2)" stroke-width="4" fill="#FFFFFF" xlink:href="#path-1"></use>
            </g>
            <g id="Group" transform="translate(47.000000, 128.000000)" fill="#DDDEE2">
                <rect id="Rectangle" x="0" y="0" width="149" height="49" rx="4"></rect>
            </g>
            <g id="Group-3" transform="translate(206.000000, 668.000000)" fill="#E7E7EA">
                <rect id="Rectangle-2" fill-opacity="0.495301178" x="72" y="0" width="708" height="639.292627" rx="30"></rect>
                <rect id="Rectangle-2" x="0" y="87" width="257.425547" height="453.292627" rx="30"></rect>
            </g>
        </g>
    </g>
</svg>