<?xml version="1.0" encoding="UTF-8"?>
<svg width="1200px" height="900px" viewBox="0 0 1200 900" version="1.1" xmlns="http://www.w3.org/2000/svg" xmlns:xlink="http://www.w3.org/1999/xlink">
    <!-- Generator: Sketch 40.3 (33839) - http://www.bohemiancoding.com/sketch -->
    <title>Hero - Zuck</title>
    <desc>Created with Sketch.</desc>
    <defs>
        <rect id="path-1" x="0" y="0" width="371" height="60" rx="4"></rect>
        <mask id="mask-2" maskContentUnits="userSpaceOnUse" maskUnits="objectBoundingBox" x="0" y="0" width="371" height="60" fill="white">
            <use xlink:href="#path-1"></use>
        </mask>
    </defs>
    <g id="Page-1" stroke="none" stroke-width="1" fill="none" fill-rule="evenodd">
        <g id="Hero---Zuck">
            <path d="M47,494.999275 C47,492.790536 48.794141,491 50.9904402,491 L581.977484,491 C584.181343,491 585.967924,492.786795 585.967924,494.999275 L585.967924,517.000725 C585.967924,519.209464 584.173783,521 581.977484,521 L50.9904402,521 C48.786581,521 47,519.213205 47,517.000725 L47,494.999275 Z M47,536.999275 C47,534.790536 48.7939722,533 51.0085416,533 L574.270824,533 C576.484681,533 578.279366,534.786795 578.279366,536.999275 L578.279366,559.000725 C578.279366,561.209464 576.485394,563 574.270824,563 L51.0085416,563 C48.7946852,563 47,561.213205 47,559.000725 L47,536.999275 Z M47,578.999275 C47,576.790536 48.7916835,575 50.9921737,575 L541.226392,575 C543.431209,575 545.218566,576.786795 545.218566,578.999275 L545.218566,601.000725 C545.218566,603.209464 543.426883,605 541.226392,605 L50.9921737,605 C48.7873571,605 47,603.213205 47,601.000725 L47,578.999275 Z" id="subheading" fill="#DDDEE2"></path>
            <path d="M47,246.006556 C47,243.793796 48.7821087,242 51.0078456,242 L664.22765,242 C666.441122,242 668.235496,243.795681 668.235496,246.006556 L668.235496,297.993444 C668.235496,300.206204 666.453387,302 664.22765,302 L51.0078456,302 C48.7943736,302 47,300.204319 47,297.993444 L47,246.006556 Z M47,320.006556 C47,317.793796 48.7811419,316 50.999848,316 L585.812355,316 C588.02141,316 589.812203,317.795681 589.812203,320.006556 L589.812203,371.993444 C589.812203,374.206204 588.031061,376 585.812355,376 L50.999848,376 C48.790793,376 47,374.204319 47,371.993444 L47,320.006556 Z M47,394.006556 C47,391.793796 48.7985873,390 50.9968774,390 L513.54288,390 C515.750294,390 517.539757,391.795681 517.539757,394.006556 L517.539757,445.993444 C517.539757,448.206204 515.74117,450 513.54288,450 L50.9968774,450 C48.789463,450 47,448.204319 47,445.993444 L47,394.006556 Z" id="heading" fill="#BEC0C4"></path>
            <g id="Group-2" transform="translate(47.000000, 699.000000)">
                <rect id="button" fill="#BEC0C4" x="383" y="0" width="148" height="60" rx="4"></rect>
                <use id="input" stroke-opacity="0.2" stroke="#000000" mask="url(#mask-2)" stroke-width="4" fill="#FFFFFF" xlink:href="#path-1"></use>
            </g>
            <g id="Group" transform="translate(47.000000, 45.000000)" fill="#DDDEE2">
                <rect id="Rectangle" x="957" y="7.5" width="149" height="33" rx="4"></rect>
                <rect id="Rectangle" x="788" y="7.5" width="149" height="33" rx="4"></rect>
                <rect id="Rectangle" x="0" y="0" width="149" height="49" rx="4"></rect>
            </g>
            <rect id="Rectangle-2" fill-opacity="0.495301178" fill="#E7E7EA" x="859" y="175" width="708" height="639.292627" rx="30"></rect>
            <rect id="Rectangle-2" fill="#E7E7EA" x="779" y="381" width="257.425547" height="453.292627" rx="30"></rect>
        </g>
    </g>
</svg>