<?xml version="1.0" encoding="UTF-8"?>
<svg width="1200px" height="900px" viewBox="0 0 1200 900" version="1.1" xmlns="http://www.w3.org/2000/svg" xmlns:xlink="http://www.w3.org/1999/xlink">
    <!-- Generator: Sketch 40.3 (33839) - http://www.bohemiancoding.com/sketch -->
    <title>Feature - 1 col left</title>
    <desc>Created with Sketch.</desc>
    <defs></defs>
    <g id="Page-1" stroke="none" stroke-width="1" fill="none" fill-rule="evenodd">
        <g id="Feature---1-col-left">
            <path d="M47,492.999275 C47,490.790536 48.794141,489 50.9904402,489 L581.977484,489 C584.181343,489 585.967924,490.786795 585.967924,492.999275 L585.967924,515.000725 C585.967924,517.209464 584.173783,519 581.977484,519 L50.9904402,519 C48.786581,519 47,517.213205 47,515.000725 L47,492.999275 Z M47,534.999275 C47,532.790536 48.7939722,531 51.0085416,531 L574.270824,531 C576.484681,531 578.279366,532.786795 578.279366,534.999275 L578.279366,557.000725 C578.279366,559.209464 576.485394,561 574.270824,561 L51.0085416,561 C48.7946852,561 47,559.213205 47,557.000725 L47,534.999275 Z M47,577.999275 C47,575.790536 48.794141,574 50.9904402,574 L581.977484,574 C584.181343,574 585.967924,575.786795 585.967924,577.999275 L585.967924,600.000725 C585.967924,602.209464 584.173783,604 581.977484,604 L50.9904402,604 C48.786581,604 47,602.213205 47,600.000725 L47,577.999275 Z M47,619.999275 C47,617.790536 48.7939722,616 51.0085416,616 L574.270824,616 C576.484681,616 578.279366,617.786795 578.279366,619.999275 L578.279366,642.000725 C578.279366,644.209464 576.485394,646 574.270824,646 L51.0085416,646 C48.7946852,646 47,644.213205 47,642.000725 L47,619.999275 Z M47,659.999275 C47,657.790536 48.7916835,656 50.9921737,656 L541.226392,656 C543.431209,656 545.218566,657.786795 545.218566,659.999275 L545.218566,682.000725 C545.218566,684.209464 543.426883,686 541.226392,686 L50.9921737,686 C48.7873571,686 47,684.213205 47,682.000725 L47,659.999275 Z" id="subheading" fill="#DDDEE2"></path>
            <path d="M47,244.006556 C47,241.793796 48.7908975,240 51.0086228,240 L540.991377,240 C543.205278,240 545,241.795681 545,244.006556 L545,295.993444 C545,298.206204 543.209102,300 540.991377,300 L51.0086228,300 C48.7947216,300 47,298.204319 47,295.993444 L47,244.006556 Z M47,318.006556 C47,315.793796 48.7990412,314 50.9958086,314 L478.137855,314 C480.344679,314 482.133663,315.795681 482.133663,318.006556 L482.133663,369.993444 C482.133663,372.206204 480.334622,374 478.137855,374 L50.9958086,374 C48.7889844,374 47,372.204319 47,369.993444 L47,318.006556 Z M47,392.006556 C47,389.793796 48.7869648,388 50.9966212,388 L420.201399,388 C422.408672,388 424.19802,389.795681 424.19802,392.006556 L424.19802,443.993444 C424.19802,446.206204 422.411055,448 420.201399,448 L50.9966212,448 C48.7893483,448 47,446.204319 47,443.993444 L47,392.006556 Z" id="heading" fill="#BEC0C4"></path>
            <g id="Group" transform="translate(722.000000, 120.000000)" fill="#E7E7EA">
                <rect id="Rectangle-2" fill-opacity="0.495301178" x="80" y="0" width="708" height="639.292627" rx="30"></rect>
                <rect id="Rectangle-2" x="0" y="206" width="257.425547" height="453.292627" rx="30"></rect>
            </g>
        </g>
    </g>
</svg>