<?xml version="1.0" encoding="UTF-8"?>
<svg width="1200px" height="900px" viewBox="0 0 1200 900" version="1.1" xmlns="http://www.w3.org/2000/svg" xmlns:xlink="http://www.w3.org/1999/xlink">
    <!-- Generator: Sketch 40.3 (33839) - http://www.bohemiancoding.com/sketch -->
    <title>SP - quote feature</title>
    <desc>Created with Sketch.</desc>
    <defs></defs>
    <g id="Page-1" stroke="none" stroke-width="1" fill="none" fill-rule="evenodd">
        <g id="SP---quote-feature">
            <rect id="heading" fill="#E7E7EA" x="666" y="325" width="133.182483" height="50" rx="4"></rect>
            <rect id="heading" fill="#E7E7EA" x="848" y="325" width="133.182483" height="50" rx="4"></rect>
            <rect id="heading" fill="#E7E7EA" x="666" y="425" width="133.182483" height="50" rx="4"></rect>
            <rect id="heading" fill="#E7E7EA" x="848" y="425" width="133.182483" height="50" rx="4"></rect>
            <g id="Group" transform="translate(45.000000, 305.000000)">
                <path d="M0,166.999275 C0,164.790536 1.79600716,163 3.99252391,163 L492.007476,163 C494.212486,163 496,164.786795 496,166.999275 L496,189.000725 C496,191.209464 494.203993,193 492.007476,193 L3.99252391,193 C1.78751384,193 0,191.213205 0,189.000725 L0,166.999275 Z M0,208.999275 C0,206.790536 1.79476141,205 4.00743505,205 L484.916959,205 C487.130204,205 488.924394,206.786795 488.924394,208.999275 L488.924394,231.000725 C488.924394,233.209464 487.129632,235 484.916959,235 L4.00743505,235 C1.79418978,235 0,233.213205 0,231.000725 L0,208.999275 Z M0,124.999275 C0,122.790536 1.79600716,121 3.99252391,121 L492.007476,121 C494.212486,121 496,122.786795 496,124.999275 L496,147.000725 C496,149.209464 494.203993,151 492.007476,151 L3.99252391,151 C1.78751384,151 0,149.213205 0,147.000725 L0,124.999275 Z M0,83.9992748 C0,81.7905363 1.79600716,80 3.99252391,80 L492.007476,80 C494.212486,80 496,81.7867947 496,83.9992748 L496,106.000725 C496,108.209464 494.203993,110 492.007476,110 L3.99252391,110 C1.78751384,110 0,108.213205 0,106.000725 L0,83.9992748 Z M0,250.999275 C0,248.790536 1.79965009,247 3.99854688,247 L454.50074,247 C456.709076,247 458.499287,248.786795 458.499287,250.999275 L458.499287,273.000725 C458.499287,275.209464 456.699637,277 454.50074,277 L3.99854688,277 C1.79021042,277 0,275.213205 0,273.000725 L0,250.999275 Z" id="subheading" fill="#DDDEE2"></path>
                <rect id="heading" fill="#BEC0C4" x="0" y="0" width="371" height="50" rx="4"></rect>
            </g>
            <rect id="heading" fill="#E7E7EA" x="1029" y="425" width="133.182483" height="50" rx="4"></rect>
            <rect id="heading" fill="#E7E7EA" x="666" y="525" width="133.182483" height="50" rx="4"></rect>
            <rect id="heading" fill="#E7E7EA" x="848" y="525" width="133.182483" height="50" rx="4"></rect>
            <rect id="heading" fill="#E7E7EA" x="1029" y="525" width="133.182483" height="50" rx="4"></rect>
            <rect id="heading" fill="#E7E7EA" x="1029" y="325" width="133.182483" height="50" rx="4"></rect>
        </g>
    </g>
</svg>