<?xml version="1.0" encoding="UTF-8"?>
<svg width="1200px" height="900px" viewBox="0 0 1200 900" version="1.1" xmlns="http://www.w3.org/2000/svg" xmlns:xlink="http://www.w3.org/1999/xlink">
    <!-- Generator: Sketch 40.3 (33839) - http://www.bohemiancoding.com/sketch -->
    <title>Hero - Cook</title>
    <desc>Created with Sketch.</desc>
    <defs>
        <rect id="path-1" x="0" y="0" width="371" height="60" rx="4"></rect>
        <mask id="mask-2" maskContentUnits="userSpaceOnUse" maskUnits="objectBoundingBox" x="0" y="0" width="371" height="60" fill="white">
            <use xlink:href="#path-1"></use>
        </mask>
    </defs>
    <g id="Page-1" stroke="none" stroke-width="1" fill="none" fill-rule="evenodd">
        <g id="Hero---Cook">
            <path d="M455,287.999275 C455,285.790536 456.791386,284 458.990132,284 L1149.00987,284 C1151.21356,284 1153,285.786795 1153,287.999275 L1153,310.000725 C1153,312.209464 1151.20861,314 1149.00987,314 L458.990132,314 C456.786443,314 455,312.213205 455,310.000725 L455,287.999275 Z M455,245.999275 C455,243.790536 456.791386,242 458.990132,242 L1149.00987,242 C1151.21356,242 1153,243.786795 1153,245.999275 L1153,268.000725 C1153,270.209464 1151.20861,272 1149.00987,272 L458.990132,272 C456.786443,272 455,270.213205 455,268.000725 L455,245.999275 Z M455,329.999275 C455,327.790536 456.794841,326 458.997486,326 L1139.04531,326 C1141.25306,326 1143.0428,327.786795 1143.0428,329.999275 L1143.0428,352.000725 C1143.0428,354.209464 1141.24795,356 1139.04531,356 L458.997486,356 C456.789735,356 455,354.213205 455,352.000725 L455,329.999275 Z M455,413.999275 C455,411.790536 456.798165,410 458.999734,410 L999.000266,410 C1001.20926,410 1003,411.786795 1003,413.999275 L1003,436.000725 C1003,438.209464 1001.20184,440 999.000266,440 L458.999734,440 C456.790742,440 455,438.213205 455,436.000725 L455,413.999275 Z M455,371.999275 C455,369.790536 456.794138,368 458.994551,368 L1096.23227,368 C1098.4384,368 1100.22682,369.786795 1100.22682,371.999275 L1100.22682,394.000725 C1100.22682,396.209464 1098.43268,398 1096.23227,398 L458.994551,398 C456.788421,398 455,396.213205 455,394.000725 L455,371.999275 Z" id="subheading" fill="#DDDEE2"></path>
            <path d="M47,246.006556 C47,243.793796 48.7921163,242 50.9921673,242 L312.491795,242 C314.696608,242 316.483962,243.795681 316.483962,246.006556 L316.483962,297.993444 C316.483962,300.206204 314.691846,302 312.491795,302 L50.9921673,302 C48.7873542,302 47,300.204319 47,297.993444 L47,246.006556 Z M47,320.006556 C47,317.793796 48.7933396,316 51.0004249,316 L278.464522,316 C280.673896,316 282.464947,317.795681 282.464947,320.006556 L282.464947,371.993444 C282.464947,374.206204 280.671607,376 278.464522,376 L51.0004249,376 C48.7910513,376 47,374.204319 47,371.993444 L47,320.006556 Z M47,394.006556 C47,391.793796 48.7956222,390 51.0085238,390 L247.105566,390 C249.319413,390 251.11409,391.795681 251.11409,394.006556 L251.11409,445.993444 C251.11409,448.206204 249.318468,450 247.105566,450 L51.0085238,450 C48.7946772,450 47,448.204319 47,445.993444 L47,394.006556 Z" id="heading" fill="#BEC0C4"></path>
            <g id="Group-2" transform="translate(455.000000, 480.000000)">
                <rect id="button" fill="#BEC0C4" x="383" y="0" width="148" height="60" rx="4"></rect>
                <use id="input" stroke-opacity="0.2" stroke="#000000" mask="url(#mask-2)" stroke-width="4" fill="#FFFFFF" xlink:href="#path-1"></use>
            </g>
            <g id="Group" transform="translate(47.000000, 45.000000)" fill="#DDDEE2">
                <rect id="Rectangle" x="957" y="7.5" width="149" height="33" rx="4"></rect>
                <rect id="Rectangle" x="788" y="7.5" width="149" height="33" rx="4"></rect>
                <rect id="Rectangle" x="0" y="0" width="149" height="49" rx="4"></rect>
            </g>
            <g id="Group-3" transform="translate(206.000000, 668.000000)" fill="#E7E7EA">
                <rect id="Rectangle-2" fill-opacity="0.495301178" x="72" y="0" width="708" height="639.292627" rx="30"></rect>
                <rect id="Rectangle-2" x="0" y="87" width="257.425547" height="453.292627" rx="30"></rect>
            </g>
        </g>
    </g>
</svg>