<?xml version="1.0" encoding="UTF-8"?>
<svg width="1200px" height="900px" viewBox="0 0 1200 900" version="1.1" xmlns="http://www.w3.org/2000/svg" xmlns:xlink="http://www.w3.org/1999/xlink">
    <!-- Generator: Sketch 40.3 (33839) - http://www.bohemiancoding.com/sketch -->
    <title>Feature - col steps</title>
    <desc>Created with Sketch.</desc>
    <defs></defs>
    <g id="Page-1" stroke="none" stroke-width="1" fill="none" fill-rule="evenodd">
        <g id="Feature---col-steps">
            <g id="Group" transform="translate(272.000000, 180.000000)">
                <path d="M0,229.999275 C0,227.790536 1.79555354,226 3.99804503,226 L652.001955,226 C654.210014,226 656,227.786795 656,229.999275 L656,252.000725 C656,254.209464 654.204446,256 652.001955,256 L3.99804503,256 C1.78998573,256 0,254.213205 0,252.000725 L0,229.999275 Z M0,271.999275 C0,269.790536 1.79807289,268 4.0033116,268 L642.638628,268 C644.849596,268 646.64194,269.786795 646.64194,271.999275 L646.64194,294.000725 C646.64194,296.209464 644.843867,298 642.638628,298 L4.0033116,298 C1.79234365,298 0,296.213205 0,294.000725 L0,271.999275 Z M0,187.999275 C0,185.790536 1.79555354,184 3.99804503,184 L652.001955,184 C654.210014,184 656,185.786795 656,187.999275 L656,210.000725 C656,212.209464 654.204446,214 652.001955,214 L3.99804503,214 C1.78998573,214 0,212.213205 0,210.000725 L0,187.999275 Z M0,146.999275 C0,144.790536 1.79555354,143 3.99804503,143 L652.001955,143 C654.210014,143 656,144.786795 656,146.999275 L656,169.000725 C656,171.209464 654.204446,173 652.001955,173 L3.99804503,173 C1.78998573,173 0,171.213205 0,169.000725 L0,146.999275 Z M0,313.999275 C0,311.790536 1.79374667,310 3.99230921,310 L602.409973,310 C604.614865,310 606.402282,311.786795 606.402282,313.999275 L606.402282,336.000725 C606.402282,338.209464 604.608536,340 602.409973,340 L3.99230921,340 C1.78741772,340 0,338.213205 0,336.000725 L0,313.999275 Z" id="subheading" fill="#DDDEE2"></path>
                <path d="M0,429.999275 C0,427.790536 1.79555354,426 3.99804503,426 L652.001955,426 C654.210014,426 656,427.786795 656,429.999275 L656,452.000725 C656,454.209464 654.204446,456 652.001955,456 L3.99804503,456 C1.78998573,456 0,454.213205 0,452.000725 L0,429.999275 Z M0,471.999275 C0,469.790536 1.79807289,468 4.0033116,468 L642.638628,468 C644.849596,468 646.64194,469.786795 646.64194,471.999275 L646.64194,494.000725 C646.64194,496.209464 644.843867,498 642.638628,498 L4.0033116,498 C1.79234365,498 0,496.213205 0,494.000725 L0,471.999275 Z M0,387.999275 C0,385.790536 1.79555354,384 3.99804503,384 L652.001955,384 C654.210014,384 656,385.786795 656,387.999275 L656,410.000725 C656,412.209464 654.204446,414 652.001955,414 L3.99804503,414 C1.78998573,414 0,412.213205 0,410.000725 L0,387.999275 Z M0,513.999275 C0,511.790536 1.79374667,510 3.99230921,510 L602.409973,510 C604.614865,510 606.402282,511.786795 606.402282,513.999275 L606.402282,536.000725 C606.402282,538.209464 604.608536,540 602.409973,540 L3.99230921,540 C1.78741772,540 0,538.213205 0,536.000725 L0,513.999275 Z" id="subheading" fill="#DDDEE2"></path>
                <rect id="heading" fill="#BEC0C4" x="0" y="63" width="490.677419" height="50" rx="4"></rect>
                <rect id="heading" fill="#BEC0C4" x="0" y="0" width="656" height="50" rx="4"></rect>
            </g>
        </g>
    </g>
</svg>